<?xml version="1.0" encoding="UTF-8" standalone="no"?>
<!-- Created with Inkscape (http://www.inkscape.org/) -->

<svg
   xmlns:dc="http://purl.org/dc/elements/1.1/"
   xmlns:cc="http://creativecommons.org/ns#"
   xmlns:rdf="http://www.w3.org/1999/02/22-rdf-syntax-ns#"
   xmlns:svg="http://www.w3.org/2000/svg"
   xmlns="http://www.w3.org/2000/svg"
   xmlns:sodipodi="http://sodipodi.sourceforge.net/DTD/sodipodi-0.dtd"
   xmlns:inkscape="http://www.inkscape.org/namespaces/inkscape"
   width="210mm"
   height="297mm"
   viewBox="0 0 210 297"
   version="1.1"
   id="svg8"
   inkscape:version="0.92.5 (2060ec1f9f, 2020-04-08)"
   sodipodi:docname="rtm_diagram.svg">
  <defs
     id="defs2">
    <marker
       inkscape:stockid="TriangleInM"
       orient="auto"
       refY="0.0"
       refX="0.0"
       id="TriangleInM"
       style="overflow:visible"
       inkscape:isstock="true">
      <path
         id="path6245"
         d="M 5.77,0.0 L -2.88,5.0 L -2.88,-5.0 L 5.77,0.0 z "
         style="fill-rule:evenodd;stroke:#000000;stroke-width:1pt;stroke-opacity:1;fill:#000000;fill-opacity:1"
         transform="scale(-0.4)" />
    </marker>
    <marker
       inkscape:stockid="TriangleInS"
       orient="auto"
       refY="0.0"
       refX="0.0"
       id="TriangleInS"
       style="overflow:visible"
       inkscape:isstock="true">
      <path
         id="path6248"
         d="M 5.77,0.0 L -2.88,5.0 L -2.88,-5.0 L 5.77,0.0 z "
         style="fill-rule:evenodd;stroke:#000000;stroke-width:1pt;stroke-opacity:1;fill:#000000;fill-opacity:1"
         transform="scale(-0.2)" />
    </marker>
    <marker
       inkscape:stockid="TriangleOutM"
       orient="auto"
       refY="0.0"
       refX="0.0"
       id="marker8398"
       style="overflow:visible"
       inkscape:isstock="true">
      <path
         id="path8396"
         d="M 5.77,0.0 L -2.88,5.0 L -2.88,-5.0 L 5.77,0.0 z "
         style="fill-rule:evenodd;stroke:#000000;stroke-width:1pt;stroke-opacity:1;fill:#000000;fill-opacity:1"
         transform="scale(0.4)" />
    </marker>
    <marker
       inkscape:isstock="true"
       style="overflow:visible"
       id="marker8253"
       refX="0.0"
       refY="0.0"
       orient="auto"
       inkscape:stockid="TriangleOutM">
      <path
         transform="scale(0.4)"
         style="fill-rule:evenodd;stroke:#1933b2;stroke-width:1pt;stroke-opacity:1;fill:#1933b2;fill-opacity:1"
         d="M 5.77,0.0 L -2.88,5.0 L -2.88,-5.0 L 5.77,0.0 z "
         id="path8251" />
    </marker>
    <marker
       inkscape:isstock="true"
       style="overflow:visible"
       id="marker7043"
       refX="0.0"
       refY="0.0"
       orient="auto"
       inkscape:stockid="TriangleOutM"
       inkscape:collect="always">
      <path
         transform="scale(0.4)"
         style="fill-rule:evenodd;stroke:#1933b2;stroke-width:1pt;stroke-opacity:1;fill:#1933b2;fill-opacity:1"
         d="M 5.77,0.0 L -2.88,5.0 L -2.88,-5.0 L 5.77,0.0 z "
         id="path7041" />
    </marker>
    <marker
       inkscape:stockid="TriangleOutS"
       orient="auto"
       refY="0.0"
       refX="0.0"
       id="TriangleOutS"
       style="overflow:visible"
       inkscape:isstock="true">
      <path
         id="path6257"
         d="M 5.77,0.0 L -2.88,5.0 L -2.88,-5.0 L 5.77,0.0 z "
         style="fill-rule:evenodd;stroke:#000000;stroke-width:1pt;stroke-opacity:1;fill:#000000;fill-opacity:1"
         transform="scale(0.2)" />
    </marker>
    <marker
       inkscape:stockid="Arrow2Mend"
       orient="auto"
       refY="0.0"
       refX="0.0"
       id="Arrow2Mend"
       style="overflow:visible;"
       inkscape:isstock="true">
      <path
         id="path6136"
         style="fill-rule:evenodd;stroke-width:0.625;stroke-linejoin:round;stroke:#000000;stroke-opacity:1;fill:#000000;fill-opacity:1"
         d="M 8.7185878,4.0337352 L -2.2072895,0.016013256 L 8.7185884,-4.0017078 C 6.9730900,-1.6296469 6.9831476,1.6157441 8.7185878,4.0337352 z "
         transform="scale(0.6) rotate(180) translate(0,0)" />
    </marker>
    <style
       id="style2"
       type="text/css">
*{stroke-linecap:butt;stroke-linejoin:round;}
  </style>
    <path
       d="M 0,0 V 3.5"
       id="md36ea9275c"
       style="stroke:#000000;stroke-width:0.80000001;stroke-linecap:butt;stroke-linejoin:round"
       inkscape:connector-curvature="0" />
    <path
       d="m 31.78125,66.40625 q -7.609375,0 -11.453125,-7.5 Q 16.5,51.421875 16.5,36.375 q 0,-14.984375 3.828125,-22.484375 3.84375,-7.5 11.453125,-7.5 7.671875,0 11.5,7.5 3.84375,7.5 3.84375,22.484375 0,15.046875 -3.84375,22.53125 -3.828125,7.5 -11.5,7.5 z m 0,7.8125 q 12.265625,0 18.734375,-9.703125 6.46875,-9.6875 6.46875,-28.140625 0,-18.40625 -6.46875,-28.109375 -6.46875,-9.6875 -18.734375,-9.6875 -12.25,0 -18.71875,9.6875 Q 6.59375,17.96875 6.59375,36.375 q 0,18.453125 6.46875,28.140625 6.46875,9.703125 18.71875,9.703125 z"
       id="DejaVuSans-30"
       inkscape:connector-curvature="0"
       style="stroke-linecap:butt;stroke-linejoin:round" />
    <path
       d="M 10.6875,12.40625 H 21 V 0 H 10.6875 Z"
       id="DejaVuSans-2e"
       inkscape:connector-curvature="0"
       style="stroke-linecap:butt;stroke-linejoin:round" />
    <path
       d="M 19.1875,8.296875 H 53.609375 V 0 H 7.328125 v 8.296875 q 5.609375,5.8125 15.296875,15.59375 9.703125,9.796875 12.1875,12.640625 4.734375,5.3125 6.609375,9 1.890625,3.6875 1.890625,7.25 0,5.8125 -4.078125,9.46875 -4.078125,3.671875 -10.625,3.671875 -4.640625,0 -9.796875,-1.609375 -5.140625,-1.609375 -11,-4.890625 v 9.96875 Q 13.765625,71.78125 18.9375,73 q 5.1875,1.21875 9.484375,1.21875 11.328125,0 18.0625,-5.671875 6.734375,-5.65625 6.734375,-15.125 0,-4.5 -1.6875,-8.53125 Q 49.859375,40.875 45.40625,35.40625 44.1875,33.984375 37.640625,27.21875 31.109375,20.453125 19.1875,8.296875 Z"
       id="DejaVuSans-32"
       inkscape:connector-curvature="0"
       style="stroke-linecap:butt;stroke-linejoin:round" />
    <path
       d="M 37.796875,64.3125 12.890625,25.390625 h 24.90625 z m -2.59375,8.59375 h 12.40625 V 25.390625 h 10.40625 V 17.1875 H 47.609375 V 0 h -9.8125 V 17.1875 H 4.890625 v 9.515625 z"
       id="DejaVuSans-34"
       inkscape:connector-curvature="0"
       style="stroke-linecap:butt;stroke-linejoin:round" />
    <path
       d="m 33.015625,40.375 q -6.640625,0 -10.53125,-4.546875 -3.875,-4.53125 -3.875,-12.4375 0,-7.859375 3.875,-12.4375 3.890625,-4.5625 10.53125,-4.5625 6.640625,0 10.515625,4.5625 3.875,4.578125 3.875,12.4375 0,7.90625 -3.875,12.4375 Q 39.65625,40.375 33.015625,40.375 Z M 52.59375,71.296875 V 62.3125 q -3.71875,1.75 -7.5,2.671875 -3.78125,0.9375 -7.5,0.9375 -9.765625,0 -14.921875,-6.59375 -5.140625,-6.59375 -5.875,-19.921875 2.875,4.25 7.21875,6.515625 4.359375,2.265625 9.578125,2.265625 10.984375,0 17.359375,-6.671875 6.375,-6.65625 6.375,-18.125 0,-11.234375 -6.640625,-18.03125 -6.640625,-6.78125 -17.671875,-6.78125 -12.65625,0 -19.34375,9.6875 -6.6875,9.703125 -6.6875,28.109375 0,17.28125 8.203125,27.5625 8.203125,10.28125 22.015625,10.28125 3.71875,0 7.5,-0.734375 3.78125,-0.734375 7.890625,-2.1875 z"
       id="DejaVuSans-36"
       inkscape:connector-curvature="0"
       style="stroke-linecap:butt;stroke-linejoin:round" />
    <path
       d="m 31.78125,34.625 q -7.03125,0 -11.0625,-3.765625 -4.015625,-3.765625 -4.015625,-10.34375 0,-6.59375 4.015625,-10.359375 4.03125,-3.765625 11.0625,-3.765625 7.03125,0 11.078125,3.78125 4.0625,3.796875 4.0625,10.34375 0,6.578125 -4.03125,10.34375 Q 38.875,34.625 31.78125,34.625 Z m -9.859375,4.1875 Q 15.578125,40.375 12.03125,44.71875 8.5,49.078125 8.5,55.328125 q 0,8.734375 6.21875,13.8125 6.234375,5.078125 17.0625,5.078125 10.890625,0 17.09375,-5.078125 6.203125,-5.078125 6.203125,-13.8125 0,-6.25 -3.546875,-10.609375 Q 48,40.375 41.703125,38.8125 q 7.125,-1.65625 11.09375,-6.5 3.984375,-4.828125 3.984375,-11.796875 0,-10.609375 -6.46875,-16.28125 -6.46875,-5.65625 -18.53125,-5.65625 -12.046875,0 -18.53125,5.65625 -6.46875,5.671875 -6.46875,16.28125 0,6.96875 4,11.796875 4.015625,4.84375 11.140625,6.5 z M 18.3125,54.390625 q 0,-5.65625 3.53125,-8.828125 3.546875,-3.171875 9.9375,-3.171875 6.359375,0 9.9375,3.171875 3.59375,3.171875 3.59375,8.828125 0,5.671875 -3.59375,8.84375 -3.578125,3.171875 -9.9375,3.171875 -6.390625,0 -9.9375,-3.171875 Q 18.3125,60.0625 18.3125,54.390625 Z"
       id="DejaVuSans-38"
       inkscape:connector-curvature="0"
       style="stroke-linecap:butt;stroke-linejoin:round" />
    <path
       d="m 12.40625,8.296875 h 16.109375 v 55.625 L 10.984375,60.40625 v 8.984375 l 17.4375,3.515625 H 38.28125 V 8.296875 H 54.390625 V 0 H 12.40625 Z"
       id="DejaVuSans-31"
       inkscape:connector-curvature="0"
       style="stroke-linecap:butt;stroke-linejoin:round" />
    <path
       d="M -0.296875,72.90625 H 61.375 v -8.3125 H 35.5 V 0 H 25.59375 V 64.59375 H -0.296875 Z"
       id="DejaVuSans-54"
       inkscape:connector-curvature="0"
       style="stroke-linecap:butt;stroke-linejoin:round" />
    <path
       d="M 9.421875,54.6875 H 18.40625 V 0 H 9.421875 Z m 0,21.296875 H 18.40625 V 64.59375 H 9.421875 Z"
       id="DejaVuSans-69"
       inkscape:connector-curvature="0"
       style="stroke-linecap:butt;stroke-linejoin:round" />
    <path
       d="M 52,44.1875 Q 55.375,50.25 60.0625,53.125 64.75,56 71.09375,56 q 8.546875,0 13.1875,-5.984375 4.640625,-5.96875 4.640625,-17 V 0 h -9.03125 v 32.71875 q 0,7.859375 -2.796875,11.65625 -2.78125,3.8125 -8.484375,3.8125 -6.984375,0 -11.046875,-4.640625 -4.046875,-4.625 -4.046875,-12.640625 V 0 h -9.03125 v 32.71875 q 0,7.90625 -2.78125,11.6875 -2.78125,3.78125 -8.59375,3.78125 -6.890625,0 -10.953125,-4.65625 -4.046875,-4.65625 -4.046875,-12.625 V 0 h -9.03125 v 54.6875 h 9.03125 v -8.5 q 3.078125,5.03125 7.375,7.421875 Q 29.78125,56 35.6875,56 41.65625,56 45.828125,52.96875 50,49.953125 52,44.1875 Z"
       id="DejaVuSans-6d"
       inkscape:connector-curvature="0"
       style="stroke-linecap:butt;stroke-linejoin:round" />
    <path
       d="m 56.203125,29.59375 v -4.390625 h -41.3125 q 0.59375,-9.28125 5.59375,-14.140625 5,-4.859375 13.9375,-4.859375 5.171875,0 10.03125,1.265625 4.859375,1.265625 9.65625,3.8125 v -8.5 q -4.84375,-2.046875 -9.921875,-3.125 -5.078125,-1.078125 -10.296875,-1.078125 -13.09375,0 -20.734375,7.609375 -7.640625,7.625 -7.640625,20.625 0,13.421875 7.25,21.296875 Q 20.015625,56 32.328125,56 q 11.03125,0 17.453125,-7.109375 6.421875,-7.09375 6.421875,-19.296875 z m -8.984375,2.640625 q -0.09375,7.359375 -4.125,11.75 -4.03125,4.40625 -10.671875,4.40625 -7.515625,0 -12.03125,-4.25 -4.515625,-4.25 -5.203125,-11.96875 z"
       id="DejaVuSans-65"
       inkscape:connector-curvature="0"
       style="stroke-linecap:butt;stroke-linejoin:round" />
    <path
       id="DejaVuSans-20"
       d=""
       inkscape:connector-curvature="0"
       style="stroke-linecap:butt;stroke-linejoin:round" />
    <path
       d="M 31,75.875 Q 24.46875,64.65625 21.28125,53.65625 18.109375,42.671875 18.109375,31.390625 18.109375,20.125 21.3125,9.0625 24.515625,-2 31,-13.1875 H 23.1875 Q 15.875,-1.703125 12.234375,9.375 8.59375,20.453125 8.59375,31.390625 q 0,10.890625 3.609375,21.921875 3.625,11.046875 10.984375,22.5625 z"
       id="DejaVuSans-28"
       inkscape:connector-curvature="0"
       style="stroke-linecap:butt;stroke-linejoin:round" />
    <path
       d="M 10.59375,35.5 H 73.1875 V 27.203125 H 10.59375 Z"
       id="DejaVuSans-2212"
       inkscape:connector-curvature="0"
       style="stroke-linecap:butt;stroke-linejoin:round" />
    <path
       d="m 44.28125,53.078125 v -8.5 Q 40.484375,46.53125 36.375,47.5 q -4.09375,0.984375 -8.5,0.984375 -6.6875,0 -10.03125,-2.046875 Q 14.5,44.390625 14.5,40.28125 q 0,-3.125 2.390625,-4.90625 2.390625,-1.78125 9.625,-3.390625 l 3.078125,-0.6875 Q 39.15625,29.25 43.1875,25.515625 47.21875,21.78125 47.21875,15.09375 q 0,-7.625 -6.03125,-12.078125 -6.03125,-4.4375 -16.578125,-4.4375 -4.390625,0 -9.15625,0.859375 Q 10.6875,0.296875 5.421875,2 v 9.28125 q 4.984375,-2.59375 9.8125,-3.890625 4.828125,-1.28125 9.578125,-1.28125 6.34375,0 9.75,2.171875 3.421875,2.171875 3.421875,6.125 0,3.65625 -2.46875,5.609375 -2.453125,1.953125 -10.8125,3.765625 l -3.125,0.734375 q -8.34375,1.75 -12.0625,5.390625 -3.703125,3.640625 -3.703125,9.984375 0,7.71875 5.46875,11.90625 Q 16.75,56 26.8125,56 q 4.96875,0 9.359375,-0.734375 4.40625,-0.71875 8.109375,-2.1875 z"
       id="DejaVuSans-73"
       inkscape:connector-curvature="0"
       style="stroke-linecap:butt;stroke-linejoin:round" />
    <path
       d="m 8.015625,75.875 h 7.8125 q 7.3125,-11.515625 10.953125,-22.5625 3.640625,-11.03125 3.640625,-21.921875 0,-10.9375 -3.640625,-22.015625 -3.640625,-11.078125 -10.953125,-22.5625 h -7.8125 Q 14.5,-2 17.703125,9.0625 20.90625,20.125 20.90625,31.390625 q 0,11.28125 -3.203125,22.265625 -3.203125,11 -9.6875,22.21875 z"
       id="DejaVuSans-29"
       inkscape:connector-curvature="0"
       style="stroke-linecap:butt;stroke-linejoin:round" />
    <path
       d="M 0,0 H -3.5"
       id="m6de808befa"
       style="stroke:#000000;stroke-width:0.80000001;stroke-linecap:butt;stroke-linejoin:round"
       inkscape:connector-curvature="0" />
    <path
       d="M 34.1875,63.1875 20.796875,26.90625 h 26.8125 z m -5.578125,9.71875 h 11.1875 L 67.578125,0 h -10.25 L 50.6875,18.703125 H 17.828125 L 11.1875,0 H 0.78125 Z"
       id="DejaVuSans-41"
       inkscape:connector-curvature="0"
       style="stroke-linecap:butt;stroke-linejoin:round" />
    <path
       d="m 18.109375,8.203125 v -29 H 9.078125 V 54.6875 h 9.03125 v -8.296875 q 2.84375,4.875 7.15625,7.234375 Q 29.59375,56 35.59375,56 q 9.96875,0 16.1875,-7.90625 6.234375,-7.90625 6.234375,-20.796875 0,-12.890625 -6.234375,-20.8125 -6.21875,-7.90625 -16.1875,-7.90625 -6,0 -10.328125,2.375 -4.3125,2.375 -7.15625,7.25 z M 48.6875,27.296875 q 0,9.90625 -4.078125,15.546875 -4.078125,5.640625 -11.203125,5.640625 -7.140625,0 -11.21875,-5.640625 -4.078125,-5.640625 -4.078125,-15.546875 0,-9.90625 4.078125,-15.546875 4.078125,-5.640625 11.21875,-5.640625 7.125,0 11.203125,5.640625 4.078125,5.640625 4.078125,15.546875 z"
       id="DejaVuSans-70"
       inkscape:connector-curvature="0"
       style="stroke-linecap:butt;stroke-linejoin:round" />
    <path
       d="M 9.421875,75.984375 H 18.40625 V 0 H 9.421875 Z"
       id="DejaVuSans-6c"
       inkscape:connector-curvature="0"
       style="stroke-linecap:butt;stroke-linejoin:round" />
    <path
       d="M 18.3125,70.21875 V 54.6875 h 18.5 v -6.984375 h -18.5 v -29.6875 q 0,-6.6875 1.828125,-8.59375 1.828125,-1.90625 7.453125,-1.90625 H 36.8125 V 0 H 27.59375 Q 17.1875,0 13.234375,3.875 9.28125,7.765625 9.28125,18.015625 v 29.6875 H 2.6875 V 54.6875 h 6.59375 v 15.53125 z"
       id="DejaVuSans-74"
       inkscape:connector-curvature="0"
       style="stroke-linecap:butt;stroke-linejoin:round" />
    <path
       d="M 8.5,21.578125 V 54.6875 h 8.984375 V 21.921875 q 0,-7.765625 3.015625,-11.65625 3.03125,-3.875 9.09375,-3.875 7.265625,0 11.484375,4.640625 4.234375,4.640625 4.234375,12.65625 v 31 h 8.984375 V 0 H 45.3125 V 8.40625 Q 42.046875,3.421875 37.71875,1 33.40625,-1.421875 27.6875,-1.421875 18.265625,-1.421875 13.375,4.4375 8.5,10.296875 8.5,21.578125 Z M 31.109375,56 Z"
       id="DejaVuSans-75"
       inkscape:connector-curvature="0"
       style="stroke-linecap:butt;stroke-linejoin:round" />
    <path
       d="m 45.40625,46.390625 v 29.59375 h 8.984375 V 0 H 45.40625 v 8.203125 q -2.828125,-4.875 -7.15625,-7.25 -4.3125,-2.375 -10.375,-2.375 -9.90625,0 -16.140625,7.90625 -6.21875,7.921875 -6.21875,20.8125 0,12.890625 6.21875,20.796875 Q 17.96875,56 27.875,56 q 6.0625,0 10.375,-2.375 4.328125,-2.359375 7.15625,-7.234375 z M 14.796875,27.296875 q 0,-9.90625 4.078125,-15.546875 4.078125,-5.640625 11.203125,-5.640625 7.125,0 11.21875,5.640625 4.109375,5.640625 4.109375,15.546875 0,9.90625 -4.109375,15.546875 -4.09375,5.640625 -11.21875,5.640625 -7.125,0 -11.203125,-5.640625 -4.078125,-5.640625 -4.078125,-15.546875 z"
       id="DejaVuSans-64"
       inkscape:connector-curvature="0"
       style="stroke-linecap:butt;stroke-linejoin:round" />
    <clipPath
       id="pfc48d1591e">
      <rect
         id="rect362"
         y="86.4"
         x="126"
         width="781.2"
         height="543.6" />
    </clipPath>
    <marker
       inkscape:stockid="TriangleOutM"
       orient="auto"
       refY="0"
       refX="0"
       id="marker8398-6"
       style="overflow:visible"
       inkscape:isstock="true">
      <path
         inkscape:connector-curvature="0"
         id="path8396-7"
         d="M 5.77,0 -2.88,5 V -5 Z"
         style="fill:#000000;fill-opacity:1;fill-rule:evenodd;stroke:#000000;stroke-width:1.00000003pt;stroke-opacity:1"
         transform="scale(0.4)" />
    </marker>
  </defs>
  <sodipodi:namedview
     id="base"
     pagecolor="#ffffff"
     bordercolor="#666666"
     borderopacity="1.0"
     inkscape:pageopacity="0.0"
     inkscape:pageshadow="2"
     inkscape:zoom="0.49497475"
     inkscape:cx="290.89106"
     inkscape:cy="761.22019"
     inkscape:document-units="mm"
     inkscape:current-layer="layer1"
     showgrid="false"
     showguides="false"
     inkscape:window-width="1920"
     inkscape:window-height="1016"
     inkscape:window-x="0"
     inkscape:window-y="27"
     inkscape:window-maximized="1" />
  <metadata
     id="metadata5">
    <rdf:RDF>
      <cc:Work
         rdf:about="">
        <dc:format>image/svg+xml</dc:format>
        <dc:type
           rdf:resource="http://purl.org/dc/dcmitype/StillImage" />
        <dc:title></dc:title>
      </cc:Work>
    </rdf:RDF>
  </metadata>
  <g
     inkscape:label="Layer 1"
     inkscape:groupmode="layer"
     id="layer1">
    <g
       id="g10546">
      <g
         id="g10499">
        <g
           id="g8014"
           transform="translate(15.347671,-97.755186)"
           style="stroke-linecap:butt;stroke-linejoin:round">
          <text
             xml:space="preserve"
             style="font-style:normal;font-variant:normal;font-weight:normal;font-stretch:normal;font-size:6.94679642px;line-height:1.25;font-family:'Open Sans';-inkscape-font-specification:'Open Sans';letter-spacing:0px;word-spacing:0px;fill:#1933b2;fill-opacity:1;stroke:none;stroke-width:0.1736699;stroke-linecap:butt;stroke-linejoin:round"
             x="31.757242"
             y="181.6904"
             id="text6103"><tspan
               sodipodi:role="line"
               style="font-style:italic;font-weight:bold;text-align:center;text-anchor:middle;fill:#1933b2;fill-opacity:1;stroke-width:0.1736699;stroke-linecap:butt;stroke-linejoin:round"
               x="31.757242"
               y="181.6904"
               id="tspan6101">Propagation</tspan></text>
          <path
             inkscape:connector-curvature="0"
             id="path6107"
             d="m 55.178906,179.97575 h 30.47921"
             style="fill:none;stroke:#1933b2;stroke-width:0.75099999;stroke-linecap:round;stroke-linejoin:miter;stroke-miterlimit:4;stroke-dasharray:none;stroke-opacity:1;marker-end:url(#marker7043)" />
        </g>
        <g
           style="stroke:#ff0000;stroke-width:10.06622028;stroke-linecap:butt;stroke-linejoin:round;stroke-miterlimit:4;stroke-dasharray:none;stroke-opacity:1"
           id="line2d_16"
           transform="matrix(0.08821583,0,0,0.08821583,2.729283,18.72353)">
          <path
             inkscape:connector-curvature="0"
             id="path345"
             style="fill:none;stroke:#ff0000;stroke-width:10.06622028;stroke-linecap:square;stroke-linejoin:round;stroke-miterlimit:4;stroke-dasharray:none;stroke-opacity:1"
             d="m 161.50909,452.31034 15.11025,0.0123 15.11025,0.0335 15.11025,0.0858 15.11026,0.20706 15.11025,0.47053 15.11025,1.00518 15.11025,2.01463 15.11025,3.77891 15.11025,6.61155 15.11025,10.73959 15.11026,16.08705 15.11025,21.9879 15.11025,26.93175 15.11025,28.52751 15.11025,23.89489 15.11025,10.59241 15.11026,-12.06307 15.11025,-41.76143 15.11025,-72.74604 15.11025,-96.73559 15.11025,-105.2972 15.11025,-92.98315 15.11025,-59.93774 15.11026,-12.6576 15.11025,37.70439 15.11025,78.96195 15.11025,101.95672 15.11025,103.34548 15.11025,86.04611 15.11025,57.40793 15.11026,26.15652 15.11025,-0.49009 15.11025,-18.49746 15.11025,-27.19069 15.11025,-28.31584 15.11025,-24.68371 15.11025,-19.0095 15.11026,-13.2569 15.11025,-8.4864 15.11025,-5.02857 15.11025,-2.77346 15.11025,-1.42939 15.11025,-0.69038 15.11025,-0.31316 15.11026,-0.13365 15.11025,-0.0537 15.11025,-0.0204"
             clip-path="url(#pfc48d1591e)" />
        </g>
        <g
           transform="matrix(-0.06570612,0,0,0.07452574,194.96649,27.10183)"
           id="g6069"
           style="stroke:#ff0000;stroke-width:10.06622028;stroke-linecap:butt;stroke-linejoin:round;stroke-miterlimit:4;stroke-dasharray:none;stroke-opacity:1">
          <path
             clip-path="url(#pfc48d1591e)"
             d="m 161.50909,452.31034 15.11025,0.0123 15.11025,0.0335 15.11025,0.0858 15.11026,0.20706 15.11025,0.47053 15.11025,1.00518 15.11025,2.01463 15.11025,3.77891 15.11025,6.61155 15.11025,10.73959 15.11026,16.08705 15.11025,21.9879 15.11025,26.93175 15.11025,28.52751 15.11025,23.89489 15.11025,10.59241 15.11026,-12.06307 15.11025,-41.76143 15.11025,-72.74604 15.11025,-96.73559 15.11025,-105.2972 15.11025,-92.98315 15.11025,-59.93774 15.11026,-12.6576 15.11025,37.70439 15.11025,78.96195 15.11025,101.95672 15.11025,103.34548 15.11025,86.04611 16.12716,79.82213 15.11026,26.15652 15.11025,-0.49009 15.11025,-18.49746 14.09334,-49.60489 15.11025,-28.31584 15.11025,-24.68371 15.11025,-19.0095 15.11026,-13.2569 15.11025,-8.4864 15.11025,-5.02857 15.11025,-2.77346 15.11025,-1.42939 15.11025,-0.69038 15.11025,-0.31316 15.11026,-0.13365 15.11025,-0.0537 15.11025,-0.0204"
             style="fill:none;stroke:#ff0000;stroke-width:10.06622028;stroke-linecap:square;stroke-linejoin:round;stroke-miterlimit:4;stroke-dasharray:none;stroke-opacity:1"
             id="path6067"
             inkscape:connector-curvature="0"
             sodipodi:nodetypes="cccccccccccccccccccccccccccccccccccccccccccccccc" />
        </g>
        <g
           style="stroke-linecap:butt;stroke-linejoin:round"
           id="g8003"
           transform="translate(16.630953,-160.26191)">
          <rect
             y="187.39566"
             x="69.067696"
             height="46.377403"
             width="45.8582"
             id="rect6065"
             style="fill:#fefd65;fill-opacity:1;fill-rule:nonzero;stroke:none;stroke-width:0.77774161;stroke-linecap:butt;stroke-linejoin:round;stroke-miterlimit:4;stroke-dasharray:none;stroke-opacity:1;paint-order:markers fill stroke" />
          <text
             id="text6073"
             y="209.31274"
             x="92.278358"
             style="font-style:normal;font-variant:normal;font-weight:normal;font-stretch:normal;font-size:5.08647442px;line-height:1.25;font-family:'Open Sans';-inkscape-font-specification:'Open Sans';letter-spacing:0px;word-spacing:0px;fill:#1933b2;fill-opacity:1;stroke:none;stroke-width:0.12716186;stroke-linecap:butt;stroke-linejoin:round"
             xml:space="preserve"><tspan
               y="209.31274"
               x="92.278358"
               style="font-style:italic;font-weight:bold;text-align:center;text-anchor:middle;fill:#1933b2;fill-opacity:1;stroke-width:0.12716186;stroke-linecap:butt;stroke-linejoin:round"
               id="tspan6071"
               sodipodi:role="line">Lossless</tspan><tspan
               id="tspan6075"
               y="215.67084"
               x="92.278358"
               style="font-style:italic;font-weight:bold;text-align:center;text-anchor:middle;fill:#1933b2;fill-opacity:1;stroke-width:0.12716186;stroke-linecap:butt;stroke-linejoin:round"
               sodipodi:role="line">Elastic Medium</tspan></text>
        </g>
        <text
           xml:space="preserve"
           style="font-style:normal;font-variant:normal;font-weight:normal;font-stretch:normal;font-size:6.94679642px;line-height:1.25;font-family:'Open Sans';-inkscape-font-specification:'Open Sans';letter-spacing:0px;word-spacing:0px;fill:#1933b2;fill-opacity:1;stroke:none;stroke-width:0.1736699;stroke-linecap:butt;stroke-linejoin:round"
           x="160.83606"
           y="21.42849"
           id="text7032"><tspan
             sodipodi:role="line"
             style="font-style:italic;font-weight:bold;text-align:center;text-anchor:middle;fill:#1933b2;fill-opacity:1;stroke-width:0.1736699;stroke-linecap:butt;stroke-linejoin:round"
             x="160.83606"
             y="21.42849"
             id="tspan7030">Data Received</tspan></text>
        <text
           id="text8299"
           y="21.42849"
           x="48.115139"
           style="font-style:normal;font-variant:normal;font-weight:normal;font-stretch:normal;font-size:6.94679642px;line-height:1.25;font-family:'Open Sans';-inkscape-font-specification:'Open Sans';letter-spacing:0px;word-spacing:0px;fill:#1933b2;fill-opacity:1;stroke:none;stroke-width:0.1736699;stroke-linecap:butt;stroke-linejoin:round"
           xml:space="preserve"><tspan
             id="tspan8297"
             y="21.42849"
             x="48.115139"
             style="font-style:italic;font-weight:bold;text-align:center;text-anchor:middle;fill:#1933b2;fill-opacity:1;stroke-width:0.1736699;stroke-linecap:butt;stroke-linejoin:round"
             sodipodi:role="line">Excitation Source</tspan></text>
      </g>
      <g
         id="g10467">
        <g
           style="stroke-linecap:butt;stroke-linejoin:round"
           transform="translate(16.630953,-65.01191)"
           id="g8366">
          <g
             style="stroke:#ff0000;stroke-width:10.06622028;stroke-linecap:butt;stroke-linejoin:round;stroke-miterlimit:4;stroke-dasharray:none;stroke-opacity:1"
             id="g8342"
             transform="matrix(0.08821583,0,0,0.08821583,-13.90167,178.98544)">
            <path
               inkscape:connector-curvature="0"
               id="path8340"
               style="fill:none;stroke:#ff0000;stroke-width:10.06622028;stroke-linecap:square;stroke-linejoin:round;stroke-miterlimit:4;stroke-dasharray:none;stroke-opacity:1"
               d="m 161.50909,452.31034 15.11025,0.0123 15.11025,0.0335 15.11025,0.0858 15.11026,0.20706 15.11025,0.47053 15.11025,1.00518 15.11025,2.01463 15.11025,3.77891 15.11025,6.61155 15.11025,10.73959 15.11026,16.08705 15.11025,21.9879 15.11025,26.93175 15.11025,28.52751 15.11025,23.89489 15.11025,10.59241 15.11026,-12.06307 15.11025,-41.76143 15.11025,-72.74604 15.11025,-96.73559 15.11025,-105.2972 15.11025,-92.98315 15.11025,-59.93774 15.11026,-12.6576 15.11025,37.70439 15.11025,78.96195 15.11025,101.95672 15.11025,103.34548 15.11025,86.04611 15.11025,57.40793 15.11026,26.15652 15.11025,-0.49009 15.11025,-18.49746 15.11025,-27.19069 15.11025,-28.31584 15.11025,-24.68371 15.11025,-19.0095 15.11026,-13.2569 15.11025,-8.4864 15.11025,-5.02857 15.11025,-2.77346 15.11025,-1.42939 15.11025,-0.69038 15.11025,-0.31316 15.11026,-0.13365 15.11025,-0.0537 15.11025,-0.0204"
               clip-path="url(#pfc48d1591e)" />
          </g>
          <g
             transform="matrix(-0.06570612,0,0,0.07452574,178.33554,187.36374)"
             id="g8346"
             style="stroke:#ff0000;stroke-width:10.06622028;stroke-linecap:butt;stroke-linejoin:round;stroke-miterlimit:4;stroke-dasharray:none;stroke-opacity:1">
            <path
               clip-path="url(#pfc48d1591e)"
               d="m 161.50909,452.31034 15.11025,0.0123 15.11025,0.0335 15.11025,0.0858 15.11026,0.20706 15.11025,0.47053 15.11025,1.00518 15.11025,2.01463 15.11025,3.77891 15.11025,6.61155 15.11025,10.73959 15.11026,16.08705 15.11025,21.9879 15.11025,26.93175 15.11025,28.52751 15.11025,23.89489 15.11025,10.59241 15.11026,-12.06307 15.11025,-41.76143 15.11025,-72.74604 15.11025,-96.73559 15.11025,-105.2972 15.11025,-92.98315 15.11025,-59.93774 15.11026,-12.6576 15.11025,37.70439 15.11025,78.96195 15.11025,101.95672 15.11025,103.34548 15.11025,86.04611 16.12716,79.82213 15.11026,26.15652 15.11025,-0.49009 15.11025,-18.49746 14.09334,-49.60489 15.11025,-28.31584 15.11025,-24.68371 15.11025,-19.0095 15.11026,-13.2569 15.11025,-8.4864 15.11025,-5.02857 15.11025,-2.77346 15.11025,-1.42939 15.11025,-0.69038 15.11025,-0.31316 15.11026,-0.13365 15.11025,-0.0537 15.11025,-0.0204"
               style="fill:none;stroke:#ff0000;stroke-width:10.06622028;stroke-linecap:square;stroke-linejoin:round;stroke-miterlimit:4;stroke-dasharray:none;stroke-opacity:1"
               id="path8344"
               inkscape:connector-curvature="0"
               sodipodi:nodetypes="cccccccccccccccccccccccccccccccccccccccccccccccc" />
          </g>
          <g
             style="stroke-linecap:butt;stroke-linejoin:round"
             id="g8356">
            <rect
               y="187.39566"
               x="69.067696"
               height="46.377403"
               width="45.8582"
               id="rect8348"
               style="fill:#fefd65;fill-opacity:1;fill-rule:nonzero;stroke:none;stroke-width:0.77774161;stroke-linecap:butt;stroke-linejoin:round;stroke-miterlimit:4;stroke-dasharray:none;stroke-opacity:1;paint-order:markers fill stroke" />
            <text
               id="text8354"
               y="209.31274"
               x="92.278358"
               style="font-style:normal;font-variant:normal;font-weight:normal;font-stretch:normal;font-size:5.08647442px;line-height:1.25;font-family:'Open Sans';-inkscape-font-specification:'Open Sans';letter-spacing:0px;word-spacing:0px;fill:#1933b2;fill-opacity:1;stroke:none;stroke-width:0.12716186;stroke-linecap:butt;stroke-linejoin:round"
               xml:space="preserve"><tspan
                 y="209.31274"
                 x="92.278358"
                 style="font-style:italic;font-weight:bold;text-align:center;text-anchor:middle;fill:#1933b2;fill-opacity:1;stroke-width:0.12716186;stroke-linecap:butt;stroke-linejoin:round"
                 id="tspan8350"
                 sodipodi:role="line">Lossless</tspan><tspan
                 id="tspan8352"
                 y="215.67084"
                 x="92.278358"
                 style="font-style:italic;font-weight:bold;text-align:center;text-anchor:middle;fill:#1933b2;fill-opacity:1;stroke-width:0.12716186;stroke-linecap:butt;stroke-linejoin:round"
                 sodipodi:role="line">Elastic Medium</tspan></text>
          </g>
          <text
             xml:space="preserve"
             style="font-style:normal;font-variant:normal;font-weight:normal;font-stretch:normal;font-size:6.94679642px;line-height:1.25;font-family:'Open Sans';-inkscape-font-specification:'Open Sans';letter-spacing:0px;word-spacing:0px;fill:#1933b2;fill-opacity:1;stroke:none;stroke-width:0.1736699;stroke-linecap:butt;stroke-linejoin:round"
             x="144.20511"
             y="181.6904"
             id="text8360"><tspan
               sodipodi:role="line"
               style="font-style:italic;font-weight:bold;text-align:center;text-anchor:middle;fill:#000000;fill-opacity:1;stroke-width:0.1736699;stroke-linecap:butt;stroke-linejoin:round"
               x="144.20511"
               y="181.6904"
               id="tspan8358">Time-reversed Data</tspan><tspan
               sodipodi:role="line"
               style="font-style:italic;font-weight:bold;text-align:center;text-anchor:middle;fill:#000000;fill-opacity:1;stroke-width:0.1736699;stroke-linecap:butt;stroke-linejoin:round"
               x="144.20511"
               y="190.3739"
               id="tspan10438" /></text>
          <text
             id="text8364"
             y="181.6904"
             x="31.484186"
             style="font-style:normal;font-variant:normal;font-weight:normal;font-stretch:normal;font-size:6.94679642px;line-height:1.25;font-family:'Open Sans';-inkscape-font-specification:'Open Sans';letter-spacing:0px;word-spacing:0px;fill:#1933b2;fill-opacity:1;stroke:none;stroke-width:0.1736699;stroke-linecap:butt;stroke-linejoin:round"
             xml:space="preserve"><tspan
               id="tspan8362"
               y="181.6904"
               x="31.484186"
               style="font-style:italic;font-weight:bold;text-align:center;text-anchor:middle;fill:#1933b2;fill-opacity:1;stroke-width:0.1736699;stroke-linecap:butt;stroke-linejoin:round"
               sodipodi:role="line">Excitation Source</tspan></text>
        </g>
        <g
           id="g8826"
           transform="translate(78.133548)"
           style="stroke-linecap:butt;stroke-linejoin:round">
          <text
             id="text8390"
             y="178.01408"
             x="82.686241"
             style="font-style:normal;font-variant:normal;font-weight:normal;font-stretch:normal;font-size:6.94679642px;line-height:1.25;font-family:'Open Sans';-inkscape-font-specification:'Open Sans';letter-spacing:0px;word-spacing:0px;fill:#1933b2;fill-opacity:1;stroke:none;stroke-width:0.1736699;stroke-linecap:butt;stroke-linejoin:round"
             xml:space="preserve"><tspan
               id="tspan8388"
               y="178.01408"
               x="82.686241"
               style="font-style:italic;font-weight:bold;text-align:center;text-anchor:middle;fill:#000000;fill-opacity:1;stroke-width:0.1736699;stroke-linecap:butt;stroke-linejoin:round"
               sodipodi:role="line">Propagation</tspan></text>
          <path
             style="fill:none;stroke:#000000;stroke-width:0.75099999;stroke-linecap:round;stroke-linejoin:miter;stroke-miterlimit:4;stroke-dasharray:none;stroke-opacity:1;marker-end:url(#marker8398)"
             d="M 59.528004,176.29944 H 29.048794"
             id="path8392"
             inkscape:connector-curvature="0" />
        </g>
      </g>
      <path
         sodipodi:nodetypes="ccc"
         inkscape:connector-curvature="0"
         id="path8392-5"
         d="M 192.03231,107.84898 V 19.633901 h -6.35151"
         style="fill:none;stroke:#000000;stroke-width:0.75099999;stroke-linecap:round;stroke-linejoin:round;stroke-miterlimit:4;stroke-dasharray:none;stroke-opacity:1;marker-start:url(#TriangleInM)" />
    </g>
  </g>
</svg>
