<?xml version="1.0" encoding="utf-8"?>
<!-- Generator: Adobe Illustrator 24.3.0, SVG Export Plug-In . SVG Version: 6.00 Build 0)  -->
<svg version="1.1"
	 id="svg2404" inkscape:version="1.0 (4035a4f, 2020-05-01)" sodipodi:docname="experimental_configuration.svg" xmlns:cc="http://creativecommons.org/ns#" xmlns:dc="http://purl.org/dc/elements/1.1/" xmlns:inkscape="http://www.inkscape.org/namespaces/inkscape" xmlns:rdf="http://www.w3.org/1999/02/22-rdf-syntax-ns#" xmlns:sodipodi="http://sodipodi.sourceforge.net/DTD/sodipodi-0.dtd" xmlns:svg="http://www.w3.org/2000/svg"
	 xmlns="http://www.w3.org/2000/svg" xmlns:xlink="http://www.w3.org/1999/xlink" x="0px" y="0px" viewBox="0 0 612 792"
	 style="enable-background:new 0 0 612 792;" xml:space="preserve">
<style type="text/css">
	.st0{fill:#969396;stroke:#231E20;stroke-width:1.1157;stroke-linecap:square;stroke-miterlimit:2.9753;}
	.st1{fill:#F1C457;stroke:#231E20;stroke-width:1.1157;stroke-linecap:square;stroke-miterlimit:2.9753;}
	.st2{fill:#D2D2D3;stroke:#231E20;stroke-width:1.1157;stroke-linecap:square;stroke-miterlimit:2.9753;}
	.st3{fill:#C66A6A;stroke:#231E20;stroke-width:1.1157;stroke-linecap:square;stroke-miterlimit:2.9753;}
	.st4{fill:none;stroke:#231E20;stroke-width:1.1157;stroke-miterlimit:2.9753;}
	.st5{fill:none;stroke:#231E20;stroke-width:0.1586;stroke-miterlimit:3.1725;}
	.st6{fill:#E9E9E9;stroke:#231E20;stroke-width:0.1586;stroke-linecap:square;stroke-miterlimit:10;}
	.st7{fill:#D2D2D3;stroke:#231E20;stroke-width:0.1586;stroke-linecap:square;stroke-miterlimit:10;}
	.st8{fill:#969396;stroke:#231E20;stroke-width:4.559799e-02;stroke-linecap:square;stroke-miterlimit:10;}
	.st9{fill:#969396;stroke:#231E20;stroke-width:0.1586;stroke-linecap:square;stroke-miterlimit:10;}
	.st10{fill:none;stroke:#231E20;stroke-width:0.1586;stroke-miterlimit:10;}
	.st11{fill:#4EB5E1;stroke:#231E20;stroke-width:0.1586;stroke-linecap:square;stroke-miterlimit:10;}
	.st12{fill:#4978E2;stroke:#231E20;stroke-width:0.1586;stroke-linecap:square;stroke-miterlimit:10;}
	.st13{fill:#989898;stroke:#231E20;stroke-width:4.559799e-02;stroke-linecap:square;stroke-miterlimit:10;}
	.st14{fill:#231E20;}
	.st15{fill:#F1C457;stroke:#231E20;stroke-width:4.559799e-02;stroke-linecap:square;stroke-miterlimit:10;}
	.st16{fill:#D2D2D3;stroke:#231E20;stroke-width:4.559799e-02;stroke-linecap:square;stroke-miterlimit:10;}
	.st17{fill:#C66A6A;stroke:#231E20;stroke-width:4.559799e-02;stroke-linecap:square;stroke-miterlimit:10;}
	.st18{fill:none;stroke:#231E20;stroke-width:4.559799e-02;stroke-miterlimit:10;}
	.st19{fill:#757B70;stroke:#231E20;stroke-width:0.1586;stroke-linecap:square;stroke-miterlimit:10;}
	.st20{fill:#211D1E;}
	.st21{fill:#C66A6A;stroke:#231E20;stroke-width:0.1586;stroke-linecap:square;stroke-miterlimit:10;}
	.st22{fill:#E1BA13;stroke:#231E20;stroke-width:0.1586;stroke-linecap:square;stroke-miterlimit:10;}
	
		.st23{fill:#757B70;fill-opacity:0.6078;stroke:#231E20;stroke-width:0.1586;stroke-linecap:square;stroke-miterlimit:10;stroke-opacity:0.6078;}
	.st24{fill:#A0A0A0;stroke:#231E20;stroke-width:0.1586;stroke-linecap:square;stroke-miterlimit:10;}
	.st25{fill:#7B7B7B;stroke:#231E20;stroke-width:0.1586;stroke-linecap:square;stroke-miterlimit:10;}
	.st26{fill:#646464;stroke:#231E20;stroke-width:0.1586;stroke-linecap:square;stroke-miterlimit:10;}
	.st27{fill:#262122;}
	.st28{fill:#424242;stroke:#231E20;stroke-width:0.1586;stroke-linecap:square;stroke-miterlimit:10;}
	.st29{fill:#64647B;stroke:#231E20;stroke-width:0.1586;stroke-linecap:square;stroke-miterlimit:10;}
	.st30{fill-rule:evenodd;clip-rule:evenodd;fill:#001BD4;stroke:#001BD4;stroke-width:0.1586;stroke-miterlimit:10;}
	.st31{font-family:'Arial-BoldItalicMT';}
	.st32{font-size:15.75px;}
	.st33{fill:#0000FF;}
	.st34{fill:#E9E9E9;stroke:#231E20;stroke-linecap:square;stroke-miterlimit:2.9753;}
	.st35{fill:#989898;stroke:#231E20;stroke-linecap:square;stroke-miterlimit:2.9753;}
	.st36{fill:#4EB5E1;stroke:#231E20;stroke-width:0.5;stroke-linecap:square;stroke-miterlimit:2.9753;}
	.st37{fill:#4978E2;stroke:#231E20;stroke-width:0.701;stroke-linecap:square;stroke-miterlimit:10;}
	.st38{fill:#D2D2D3;stroke:#231E20;stroke-linecap:square;stroke-miterlimit:2.9753;}
	.st39{fill:#F1C457;stroke:#231E20;stroke-linecap:square;stroke-miterlimit:2.9753;}
	.st40{fill:#4EB5E1;stroke:#231E20;stroke-width:0.7007;stroke-linecap:square;stroke-miterlimit:10;}
	.st41{fill:#C5C4C5;stroke:#231E20;stroke-width:0.701;stroke-linecap:square;stroke-miterlimit:2.9753;}
	.st42{fill:#09ACF2;fill-opacity:0.6275;stroke:#231E20;stroke-width:0.701;stroke-linecap:square;stroke-miterlimit:2.9753;}
	.st43{fill:#E7E7E7;stroke:#231E20;stroke-width:0.701;stroke-linecap:square;stroke-miterlimit:2.9753;}
	.st44{fill:none;stroke:#000000;stroke-width:4.0999;stroke-linecap:square;stroke-miterlimit:27.3334;}
	.st45{fill:none;stroke:#000000;stroke-width:4.0999;stroke-miterlimit:27.3334;}
	.st46{fill:#C66A6A;stroke:#231E20;stroke-width:3.075;stroke-linecap:square;stroke-miterlimit:27.3334;}
	.st47{fill:#444344;stroke:#231E20;stroke-width:0.701;stroke-linecap:square;stroke-miterlimit:2.9753;}
	.st48{fill:#969396;stroke:#231E20;stroke-width:0.701;stroke-linecap:square;stroke-miterlimit:2.9753;}
	.st49{fill:#004CF4;fill-opacity:0.6275;stroke:#231E20;stroke-width:0.701;stroke-linecap:square;stroke-miterlimit:2.9753;}
	.st50{fill:#FEED81;stroke:#231E20;stroke-width:0.701;stroke-linecap:square;stroke-miterlimit:10;}
	.st51{fill:#FEED81;stroke:#231E20;stroke-width:0.701;stroke-linecap:square;stroke-miterlimit:2.9753;}
	.st52{font-size:15.2999px;}
</style>
<inkscape:perspective  id="perspective10289" inkscape:persp3d-origin="2687.606 : 1321.8994 : 1" inkscape:vp_x="-11.31023 : -93.476398 : 0" inkscape:vp_y="-101.31351 : -4.0304177e-07 : 0" inkscape:vp_z="-68.414286 : 65.769876 : 0" sodipodi:type="inkscape:persp3d">
	</inkscape:perspective>
<inkscape:perspective  id="perspective10237" inkscape:persp3d-origin="711.09577 : 349.75256 : 1" inkscape:vp_x="-2.9924984 : -24.732297 : 0" inkscape:vp_y="-26.805867 : -1.0663813e-07 : 0" inkscape:vp_z="-18.10128 : 17.401612 : 0" sodipodi:type="inkscape:persp3d">
	</inkscape:perspective>
<inkscape:perspective  id="perspective1922-7-3" inkscape:persp3d-origin="100.8017 : 129.51014 : 1" inkscape:vp_x="-0.79176523 : -6.5437533 : 0" inkscape:vp_y="-7.092386 : -2.8214673e-08 : 0" inkscape:vp_z="-4.7892972 : 4.6041766 : 0" sodipodi:type="inkscape:persp3d">
	</inkscape:perspective>
<g id="flowRoot31646" transform="translate(56.583334,48.096024)">
</g>
<g id="flowRoot31646-6" transform="translate(-60.590863,-169.74807)">
</g>
<g>
	<g id="g3657">
		<rect id="rect29904-2-8-1-6-5-7" x="42.8" y="169.1" class="st0" width="5.5" height="62.8"/>
		<path id="path3208" inkscape:connector-curvature="0" sodipodi:nodetypes="csscccccc" class="st0" d="M15.7,169.1v36.3
			c0,17.4,14.7,31.4,33,31.4h7l0,0v-4.9h-13v-62.8H15.7z"/>
	</g>
	<g id="g3653">
		<path id="path3271" inkscape:connector-curvature="0" sodipodi:nodetypes="cccccccccccc" class="st1" d="M65.3,163v53.1H76h2.6
			h10.8H92v-33.4v-5.3H78.7v-5.7V163H65.3z"/>
		<path id="path3273" inkscape:connector-curvature="0" sodipodi:nodetypes="cccccccccccccc" class="st2" d="M48.2,160.1V232h10.4
			h6.6v-12.6l10.3-0.1v-3H65.3V163h10.3v-2.9H65.3l0,0H48.2z"/>
		<path id="path3275" inkscape:connector-curvature="0" sodipodi:nodetypes="cccccccccccc" class="st2" d="M81.4,174.7v2.7h10.3
			v38.7H81.4v2.7h23.5v-2.7v-38.7l0,0v-2.7H81.4z"/>
		<rect id="rect3277" x="68" y="191.5" class="st3" width="30.4" height="5.1"/>
		<rect id="rect3283" x="118.4" y="174.7" class="st2" width="4.1" height="44.2"/>
		<path id="path3281" inkscape:connector-curvature="0" sodipodi:nodetypes="ccc" class="st4" d="M45.1,193.9h22.2v0.1"/>
		<rect id="rect3283-3" x="104.9" y="174.7" class="st2" width="13.4" height="44.2"/>
		<path id="path3279" inkscape:connector-curvature="0" sodipodi:nodetypes="ccc" class="st4" d="M98.3,193.9h22.1v0.1"/>
	</g>
</g>
<g id="g3549" transform="translate(0,5.2232675)">
	<path class="st4" d="M0,0"/>
</g>
<g>
	<g id="g4739" transform="matrix(0.3172497,0,0,0.3172497,-10.870296,127.20331)">
		<path class="st5" d="M0,0"/>
		<g>
			<path id="path4477" inkscape:connector-curvature="0" class="st6" d="M808.7,129.2c-23.4,0-42.2,17.9-42.2,40.1v43.4
				c0,22.2,18.8,40.1,42.2,40.1h9v13.3h50.6v-13.3h8.7c23.4,0,42.2-17.9,42.2-40.1v-43.4c0-22.2-18.8-40.1-42.2-40.1
				C877,129.2,808.7,129.2,808.7,129.2z"/>
			<rect id="rect29904-2-8-1-6-4" x="909.2" y="185.7" class="st7" width="114" height="27.8"/>
			<rect id="rect29904-2-8-1-6-4-0" x="827.2" y="42.4" class="st7" width="27.8" height="104.6"/>
			<g id="g4487" transform="matrix(0.28745807,0,0,0.28745807,116.38619,160.09432)">
				<rect id="rect4483" x="2381.8" y="21.2" class="st8" width="24.3" height="279.3"/>
				<path id="path4485" inkscape:connector-curvature="0" sodipodi:nodetypes="csscccccc" class="st8" d="M2261.4,21.2v161.6
					c0,77.3,65.5,139.5,146.9,139.5h31.2l0,0v-21.7h-57.6V21.2H2261.4z"/>
			</g>
			<path id="path4489" inkscape:connector-curvature="0" sodipodi:nodetypes="csscccccc" class="st9" d="M915.3,229.8l-1.3,2.6
				c-5.5,10.6-17.1,20.4-40.5,20.4h-5.2l0,0v-6.2l0,0v-16.7L915.3,229.8z"/>
			<path id="path4491" inkscape:connector-curvature="0" sodipodi:nodetypes="ccc" class="st10" d="M846.9,176.9v2.7h-0.1"/>
			<path id="path4493" inkscape:connector-curvature="0" sodipodi:nodetypes="ccc" class="st10" d="M846.9,223.3v2.7h-0.1"/>
			<path id="path4495" inkscape:connector-curvature="0" sodipodi:nodetypes="ccccccccccccccc" class="st11" d="M888.4,124.6H885
				l0,0v5.3l0,0l0,0l0,0V176v5.3h3.4V176v-46l0,0l0,0V124.6z"/>
			<path id="path4497" inkscape:connector-curvature="0" sodipodi:nodetypes="ccccccccccccccc" class="st12" d="M895.4,128.9H892
				l0,0v5.3l0,0l0,0l0,0v46.1v5.3h3.4v-5.3v-46.1l0,0l0,0V128.9z"/>
			<g id="g4533" transform="matrix(0.28745807,0,0,0.28745807,116.38619,160.09432)">
				<path id="path4499" inkscape:connector-curvature="0" class="st13" d="M2408.3-107.5c-81.4,0-146.9,62.2-146.9,139.4v150.8
					c0,77.3,65.5,139.5,146.9,139.5h31.2v46.4h176v-46.4h30.2c81.4,0,146.9-62.2,146.9-139.5V32c0-77.3-65.5-139.4-146.9-139.4
					L2408.3-107.5z M2189.3-283.8h677.3c51,0,92.1,41.1,92.1,92.1v609.4c0,51-41.1,92.1-92.1,92.1h-677.3c-51,0-92.1-41.1-92.1-92.1
					v-609.4C2097.1-242.7,2138.2-283.8,2189.3-283.8z"/>
				<circle id="circle4501" class="st14" cx="2527" cy="-181" r="37.1"/>
				<circle id="circle4503" class="st14" cx="2653.6" cy="-181" r="37.1"/>
				<circle id="circle4505" class="st14" cx="2396.6" cy="-181" r="37.1"/>
				<circle id="circle4507" class="st14" cx="2529" cy="440.7" r="37.1"/>
				<circle id="circle4509" class="st14" cx="2655.5" cy="440.7" r="37.1"/>
				<circle id="circle4511" class="st14" cx="2398.5" cy="440.7" r="37.1"/>
				<circle id="circle4513" class="st14" cx="2767.2" cy="372.5" r="37.1"/>
				<circle id="circle4515" class="st14" cx="2861.8" cy="271.4" r="37.1"/>
				<circle id="circle4517" class="st14" cx="2877.1" cy="136.5" r="37.1"/>
				<circle id="circle4519" class="st14" cx="2872.3" cy="-13.1" r="37.1"/>
				<circle id="circle4521" class="st14" cx="2797.9" cy="-138.4" r="37.1"/>
				<circle id="circle4523" class="st14" cx="2252.3" cy="-138.4" r="37.1"/>
				<circle id="circle4525" class="st14" cx="2177.2" cy="-13.1" r="37.1"/>
				<circle id="circle4527" class="st14" cx="2173.9" cy="136.5" r="37.1"/>
				<circle id="circle4529" class="st14" cx="2187.7" cy="271.4" r="37.1"/>
				<circle id="circle4531" class="st14" cx="2283" cy="372.5" r="37.1"/>
			</g>
			<g id="g4551" transform="matrix(0.28745807,0,0,0.28745807,116.38619,160.09432)">
				<path id="path4535" inkscape:connector-curvature="0" sodipodi:nodetypes="cccccccccccc" class="st15" d="M2481.9-5.9v236.2
					h47.8h11.7h47.8h11.7V81.7V58.2h-59.5V32.9V-5.9H2481.9z"/>
				<path id="path4537" inkscape:connector-curvature="0" sodipodi:nodetypes="cccccccccccccc" class="st16" d="M2406.1-18.9v319.5
					h46.4h29.4v-56.1l46-0.7v-13.5h-46V-5.9h46v-13h-46l0,0H2406.1z"/>
				<path id="path4539" inkscape:connector-curvature="0" sodipodi:nodetypes="cccccccccccc" class="st16" d="M2555,46v12.2h46
					v172.1h-46v12.2h104.6v-12.2V58.2h-0.1V46H2555z"/>
				<rect id="rect4541" x="2494.1" y="120.5" class="st17" width="135.1" height="22.8"/>
				<rect id="rect4543" x="2719.3" y="46" class="st16" width="18.4" height="196.5"/>
				<path id="path4545" inkscape:connector-curvature="0" sodipodi:nodetypes="ccc" class="st18" d="M2392.5,131.4h98.8v0.3"/>
				<rect id="rect4547" x="2659.5" y="46" class="st16" width="59.8" height="196.5"/>
				<path id="path4549" inkscape:connector-curvature="0" sodipodi:nodetypes="ccc" class="st18" d="M2628.9,131.5h98.2v0.4"/>
			</g>
			<rect id="rect29904-2-7-9-7-9" x="630.1" y="305.7" class="st19" width="475.2" height="55.6"/>
			<rect id="rect29940" x="541.6" y="485.2" class="st20" width="649.8" height="18.2"/>
			<rect id="rect29904-2-8-1-6-7-3" x="1042.9" y="238.4" class="st21" width="32.8" height="9.5"/>
			<path id="path31072" inkscape:connector-curvature="0" class="st10" d="M1074.7,243h18.9v0.2"/>
			<rect id="rect29904-2-8-1-6-7" x="1013.2" y="175.3" class="st22" width="24.1" height="51"/>
			<rect id="rect29904-2-8-1-6" x="1034.8" y="169.3" class="st7" width="69.8" height="63"/>
			<rect id="rect29904-2-8-1-6-5" x="1040.1" y="149.5" class="st7" width="5.1" height="102.6"/>
			<rect id="rect29904-2-7-9" x="967" y="-34.4" class="st23" width="56" height="404"/>
			<rect id="rect29904-2-8-1-6-7-3-4" x="879.9" y="-15.4" class="st21" width="9.5" height="32.8"/>
			<path id="path31072-0" inkscape:connector-curvature="0" class="st10" d="M884.5-14.4v-18.9h0.2"/>
			<rect id="rect29904-2-8-1-6-7-2" x="816.8" y="22.9" class="st22" width="51" height="24.1"/>
			<rect id="rect29904-2-8-1-6-2" x="810.8" y="-44.3" class="st7" width="63" height="69.8"/>
			<rect id="rect29904-2-8-1-6-5-8" x="791" y="15.1" class="st7" width="102.6" height="5.1"/>
			<rect id="rect29904-2-7-9-7" x="669.9" y="-28.7" class="st19" width="56" height="404"/>
			<rect id="rect29904-2-7-9-7-9-8" x="627" y="35.8" class="st23" width="475.2" height="55.6"/>
			<rect id="rect29904-2-8-1-7-2" x="792.7" y="-223.5" class="st24" width="97.5" height="136.1"/>
			<g id="g30886" transform="translate(55.071366,66.238881)">
				<g id="g30878">
					<rect id="rect29904-2-8-1-7-2-6" x="708.3" y="-343.5" class="st24" width="39.8" height="196.4"/>
					<rect id="rect29904-2-8-1-7-2-6-9" x="721.2" y="-343.5" class="st24" width="14.2" height="196.4"/>
				</g>
				<g id="g30874" transform="translate(-1.0623626,-12.284111)">
					<rect id="rect29904-2-8-1-7-2-6-4" x="826.7" y="-331.2" class="st24" width="39.8" height="196.4"/>
					<rect id="rect29904-2-8-1-7-2-6-9-8" x="839.5" y="-331.2" class="st24" width="14.2" height="196.4"/>
				</g>
			</g>
			<rect id="rect29904-2-8-1-7" x="751.5" y="-262.7" class="st24" width="180" height="48.6"/>
			<rect id="rect29904-2-8-1" x="650.4" y="-95.2" class="st24" width="391.8" height="66.5"/>
			<g id="g30466" transform="translate(62.506213,66.191634)">
				<g id="g30471">
					<rect id="rect29904-2-7-9-7-9-89" x="460.3" y="236" class="st25" width="32.7" height="59.8"/>
				</g>
				<rect id="rect29904-2-7-9-7-9-89-8" x="460.3" y="268.5" class="st25" width="32.7" height="27.2"/>
				<rect id="rect29904-2-7-9-7-9-89-8-0" x="460.3" y="236" class="st26" width="32.7" height="7.1"/>
			</g>
			<rect id="rect30468" x="503.9" y="311.8" class="st27" width="19" height="38.4"/>
			<g id="g30466-2" transform="translate(62.506213,12.093798)">
				<g id="g30471-0">
					<rect id="rect29904-2-7-9-7-9-89-2" x="460.3" y="21.7" class="st25" width="32.7" height="59.8"/>
				</g>
				<rect id="rect29904-2-7-9-7-9-89-8-4" x="460.3" y="54.3" class="st25" width="32.7" height="27.2"/>
				<rect id="rect29904-2-7-9-7-9-89-8-0-3" x="460.3" y="21.7" class="st26" width="32.7" height="7.1"/>
			</g>
			<rect id="rect30468-7" x="503.9" y="43.5" class="st27" width="19" height="38.4"/>
			<rect id="rect29904-2-8-1-7-2-0" x="1166.9" y="147.4" class="st24" width="136.1" height="97.5"/>
			<g id="g30886-9" transform="rotate(90,90.208584,210.46154)">
				<g id="g30878-4">
					
						<rect id="rect29904-2-8-1-7-2-6-5" x="-80.4" y="-977.8" transform="matrix(2.535182e-06 1 -1 2.535182e-06 -940.1045 -975.7201)" class="st24" width="196.4" height="39.8"/>
					
						<rect id="rect29904-2-8-1-7-2-6-9-4" x="-80.5" y="-965" transform="matrix(2.535182e-06 1 -1 2.535182e-06 -940.2044 -975.6201)" class="st24" width="196.4" height="14.2"/>
				</g>
				<g id="g30874-2" transform="translate(-1.0623626,-12.284111)">
					
						<rect id="rect29904-2-8-1-7-2-6-4-2" x="38" y="-965.5" transform="matrix(2.535182e-06 1 -1 2.535182e-06 -809.3847 -1081.7349)" class="st24" width="196.4" height="39.8"/>
					
						<rect id="rect29904-2-8-1-7-2-6-9-8-3" x="37.9" y="-952.7" transform="matrix(2.535182e-06 1 -1 2.535182e-06 -809.4847 -1081.6348)" class="st24" width="196.4" height="14.2"/>
				</g>
			</g>
			<rect id="rect29904-2-8-1-7-9" x="1293.6" y="106.2" class="st24" width="48.6" height="180"/>
			<rect id="rect29904-2-8" x="650.4" y="369.5" class="st24" width="391.8" height="66.5"/>
			<g id="g30486-5-3-4" transform="rotate(-90,149.53701,145.02183)">
				<g id="g30466-2-0-8" transform="translate(7.5122768)">
					<g id="g30471-0-0-2">
						
							<rect id="rect29904-2-7-9-7-9-89-2-1-2" x="-197.1" y="973.9" transform="matrix(-2.535182e-06 -1 1 -2.535182e-06 -1157.4753 823.0228)" class="st25" width="59.8" height="32.7"/>
					</g>
					
						<rect id="rect29904-2-7-9-7-9-89-8-4-5-0" x="-180.8" y="990.2" transform="matrix(-2.535182e-06 -1 1 -2.535182e-06 -1173.7537 839.345)" class="st25" width="27.2" height="32.7"/>
					
						<rect id="rect29904-2-7-9-7-9-89-8-0-3-8-2" x="-170.7" y="947.5" transform="matrix(-2.535182e-06 -1 1 -2.535182e-06 -1130.9912 796.7072)" class="st26" width="7.1" height="32.7"/>
				</g>
				
					<rect id="rect30468-7-0-4" x="-204.7" y="979.7" transform="matrix(-2.535182e-06 -1 1 -2.535182e-06 -1174.7384 803.6588)" class="st27" width="38.4" height="19"/>
			</g>
			<g id="g30486-5-3-4-5" transform="rotate(-90,119.50286,175.05598)">
				<g id="g30466-2-0-8-8" transform="translate(7.5122768)">
					<g id="g30471-0-0-2-4">
						
							<rect id="rect29904-2-7-9-7-9-89-2-1-2-0" x="-197.1" y="736" transform="matrix(-2.535182e-06 -1 1 -2.535182e-06 -919.5587 585.1379)" class="st25" width="59.8" height="32.7"/>
					</g>
					
						<rect id="rect29904-2-7-9-7-9-89-8-4-5-0-8" x="-180.8" y="752.3" transform="matrix(-2.535182e-06 -1 1 -2.535182e-06 -935.8365 601.46)" class="st25" width="27.2" height="32.7"/>
					
						<rect id="rect29904-2-7-9-7-9-89-8-0-3-8-2-4" x="-170.7" y="709.6" transform="matrix(-2.535182e-06 -1 1 -2.535182e-06 -893.0742 558.8223)" class="st26" width="7.1" height="32.7"/>
				</g>
				
					<rect id="rect30468-7-0-4-2" x="-204.7" y="741.8" transform="matrix(-2.535182e-06 -1 1 -2.535182e-06 -936.8214 565.7737)" class="st27" width="38.4" height="19"/>
			</g>
			<g id="g30486-5-3-4-54" transform="rotate(90,85.854163,204.64033)">
				<g id="g30466-2-0-8-2" transform="translate(7.5122768)">
					<g id="g30471-0-0-2-7">
						
							<rect id="rect29904-2-7-9-7-9-89-2-1-2-5" x="-269.2" y="-422.7" transform="matrix(2.535182e-06 1 -1 2.535182e-06 -645.6372 -167.0134)" class="st25" width="59.8" height="32.7"/>
					</g>
					
						<rect id="rect29904-2-7-9-7-9-89-8-4-5-0-7" x="-252.8" y="-406.4" transform="matrix(2.535182e-06 1 -1 2.535182e-06 -629.2595 -150.7917)" class="st25" width="27.2" height="32.7"/>
					
						<rect id="rect29904-2-7-9-7-9-89-8-0-3-8-2-5" x="-242.7" y="-449" transform="matrix(2.535182e-06 1 -1 2.535182e-06 -671.8213 -193.429)" class="st26" width="7.1" height="32.7"/>
				</g>
				
					<rect id="rect30468-7-0-4-22" x="-276.9" y="-416.8" transform="matrix(2.535182e-06 1 -1 2.535182e-06 -664.973 -149.5765)" class="st27" width="38.4" height="19"/>
			</g>
			<g id="g30486-5-3-4-5-8" transform="rotate(90,115.88831,234.67448)">
				<g id="g30466-2-0-8-8-6" transform="translate(7.5122768)">
					<g id="g30471-0-0-2-4-6">
						
							<rect id="rect29904-2-7-9-7-9-89-2-1-2-0-0" x="-269.1" y="-660.6" transform="matrix(2.535182e-06 1 -1 2.535182e-06 -883.4507 -404.9959)" class="st25" width="59.8" height="32.7"/>
					</g>
					
						<rect id="rect29904-2-7-9-7-9-89-8-4-5-0-8-0" x="-252.8" y="-644.3" transform="matrix(2.535182e-06 1 -1 2.535182e-06 -867.1727 -388.674)" class="st25" width="27.2" height="32.7"/>
					
						<rect id="rect29904-2-7-9-7-9-89-8-0-3-8-2-4-9" x="-242.8" y="-686.9" transform="matrix(2.535182e-06 1 -1 2.535182e-06 -909.7344 -431.3116)" class="st26" width="7.1" height="32.7"/>
				</g>
				
					<rect id="rect30468-7-0-4-2-1" x="-276.8" y="-654.7" transform="matrix(2.535182e-06 1 -1 2.535182e-06 -902.7864 -387.559)" class="st27" width="38.4" height="19"/>
			</g>
			<rect id="rect29904-2" x="558" y="23.7" class="st24" width="79.6" height="366.1"/>
			<rect id="rect29904" x="542.9" y="385.7" class="st28" width="102.3" height="99.5"/>
			<g id="g30588" transform="translate(55.071366,66.238881)">
				<rect id="rect29904-2-7" x="1038.6" y="-42.6" class="st24" width="79.6" height="366.1"/>
			</g>
			<g id="g30486-5-3" transform="rotate(180,124.00678,206.11962)">
				<g id="g30466-2-0" transform="translate(7.5122768)">
					<g id="g30471-0-0">
						<rect id="rect29904-2-7-9-7-9-89-2-1" x="-967.8" y="50.3" class="st25" width="32.7" height="59.8"/>
					</g>
					<rect id="rect29904-2-7-9-7-9-89-8-4-5" x="-967.8" y="82.9" class="st25" width="32.7" height="27.2"/>
					<rect id="rect29904-2-7-9-7-9-89-8-0-3-8" x="-967.8" y="50.3" class="st26" width="32.7" height="7.1"/>
				</g>
				<rect id="rect30468-7-0" x="-979.3" y="60" class="st27" width="19" height="38.4"/>
			</g>
			<g id="g30486-5-3-0" transform="rotate(180,124.00678,179.0707)">
				<g id="g30466-2-0-0" transform="translate(7.5122768)">
					<g id="g30471-0-0-4">
						<rect id="rect29904-2-7-9-7-9-89-2-1-7" x="-967.8" y="264.6" class="st25" width="32.7" height="59.8"/>
					</g>
					<rect id="rect29904-2-7-9-7-9-89-8-4-5-5" x="-967.8" y="297.1" class="st25" width="32.7" height="27.2"/>
					<rect id="rect29904-2-7-9-7-9-89-8-0-3-8-3" x="-967.8" y="264.6" class="st29" width="32.7" height="7.1"/>
				</g>
				<rect id="rect30468-7-0-1" x="-979.3" y="274.2" class="st27" width="19" height="38.4"/>
			</g>
			<rect id="rect29904-8" x="1087.9" y="385.7" class="st28" width="102.3" height="99.5"/>
			<path id="path31705" inkscape:connector-curvature="0" class="st30" d="M733.3,109.4"/>
		</g>
	</g>
	<text transform="matrix(1 0 0 1 200.6899 18.0926)" class="st31 st32">Vertical Piston</text>
	<text transform="matrix(1 0 0 1 373.417 116.6273)" class="st31 st32">Horizontal Piston</text>
	<text transform="matrix(1 0 0 1 29.1478 93.399)" class="st33 st31 st32">Pressure Vessel</text>
</g>
<g>
	<path class="st34" d="M444.1,401.8h-58.8c-17.6,0-31.9,14.3-31.9,31.9v34.1c0,17.6,14.3,31.9,31.9,31.9h9.6v9.9h39.6v-9.9h9.6
		c17.6,0,31.9-14.3,31.9-31.9v-34.1C476,416.1,461.7,401.8,444.1,401.8z"/>
	<g>
		<rect x="353.3" y="436.9" class="st35" width="6.9" height="37"/>
		<rect x="360.2" y="447.4" class="st35" width="18.8" height="26.5"/>
		<rect x="357.6" y="473.9" class="st35" width="15.2" height="6.8"/>
	</g>
	<polygon class="st36" points="437.7,423.2 437.7,402.3 437.7,402.3 437.7,399.8 435,399.8 435,402.3 435,402.3 435,423.2 
		429.5,423.2 429.5,423.2 428.7,423.2 428.7,425.8 429.5,425.8 429.5,425.8 436.8,425.8 437.7,425.8 	"/>
	<polygon class="st37" points="439.3,401.8 439.3,406.1 439.3,406.1 439.3,435.6 436.8,435.6 392.5,435.6 392.5,435.6 390,435.6 
		387.4,435.6 387.4,435.6 387.4,436.8 387.4,436.8 387.4,447.2 387.4,448.4 390,448.4 390,447.2 390,438.2 392.5,438.2 392.5,438.2 
		436.8,438.2 439.3,438.2 439.3,442.9 439.3,447.1 441.9,447.1 441.9,442.9 441.9,438.2 441.9,435.6 441.9,406.1 441.9,406.1 
		441.9,401.8 	"/>
	<g>
		<rect x="444.8" y="452.1" class="st38" width="5.5" height="20.1"/>
		<rect x="379.1" y="453.8" class="st38" width="5.5" height="20.1"/>
		<rect x="404.4" y="414.8" class="st38" width="20.1" height="5.5"/>
		<path class="st39" d="M431.2,444.9v-22.7c0-1.2-1-2.2-2.2-2.2h-29c-1.2,0-2.2,1-2.2,2.2v22.7c0,1.2-1,2.2-2.2,2.2h-9.1
			c-1.2,0-2.2,1-2.2,2.2v29c0,1.2,1,2.2,2.2,2.2h11.3h33.5h11.3c1.2,0,2.2-1,2.2-2.2v-29c0-1.2-1-2.2-2.2-2.2h-9.1
			C432.2,447.1,431.2,446.1,431.2,444.9z"/>
	</g>
	<path class="st35" d="M356,480.7h38.9v9.4v9.9h-9.6C372.2,499.9,360.9,492,356,480.7z"/>
	<path class="st35" d="M473.4,480.7h-38.9v9.4v9.9h9.6C457.2,499.9,468.4,492,473.4,480.7z"/>
	<rect id="rect3317_1_" x="456.1" y="452.1" class="st38" width="75.4" height="20.1"/>
	<rect id="rect29904-2-8-1-6-4-0-0" x="404.6" y="316.9" class="st38" width="20.1" height="93.4"/>
	<g>
		<g id="g3556" transform="translate(541.2249,24.71669)">
			<g id="g3512">
				<path id="path2793" inkscape:connector-curvature="0" class="st40" d="M-300,314.7v4.2V331h4.2v-12.1h77.8h110.8v20.5h4.2v-20.5
					v-4.2h-4.2H-218h-77.8L-300,314.7L-300,314.7z"/>
				<rect id="rect2767" x="-332.2" y="337.7" class="st41" width="68.4" height="157.5"/>
				<rect id="rect2769" x="-318.8" y="347.3" class="st42" width="41.8" height="138.3"/>
				<rect id="rect2771" x="-318.8" y="383.1" class="st43" width="41.8" height="102.4"/>
				<g id="g2781" transform="matrix(2.0943721,0,0,2.0943721,-535.71291,-279.53534)">
					<g id="g2777">
						<path id="path2773" inkscape:connector-curvature="0" sodipodi:nodetypes="cc" class="st44" d="M131.2,345.1V378"/>
						<path id="path2775" inkscape:connector-curvature="0" class="st45" d="M120.2,377.9h11.1"/>
					</g>
					<rect id="rect2779" x="129.9" y="324.4" class="st46" width="2.7" height="20.7"/>
				</g>
				<path id="rect2783" inkscape:connector-curvature="0" class="st47" d="M-318.8,376.5v6.7h14.4v126.5h12.9V383.1h14.4v-6.7h-41.7
					L-318.8,376.5L-318.8,376.5z"/>
				<rect id="rect2785" x="-311.9" y="508.7" class="st47" width="27.8" height="6.7"/>
				<path id="rect2789" inkscape:connector-curvature="0" class="st47" d="M-311.9,331v6.7h7.4v9.6h12.9v-9.6h7.4V331h-7.4h-12.9
					H-311.9z"/>
				<path id="path2845" inkscape:connector-curvature="0" sodipodi:nodetypes="ccccccccccc" class="st48" d="M-315.2,328.5h13v-1.3
					h2.2V325h-2.2v-1.3h-13v1.3v2.2V328.5z"/>
			</g>
			<g id="g3497">
				<path id="path2763" inkscape:connector-curvature="0" class="st37" d="M-384.8,309.3v4.2V331h4.2v-17.5H-218l0,0h116.3v25.9h4.2
					v-25.9v-4.2h-4.2H-218l0,0h-162.7H-384.8z"/>
				<rect id="rect2737" x="-417" y="337.7" class="st41" width="68.4" height="157.5"/>
				<rect id="rect2739" x="-403.6" y="347.3" class="st49" width="41.8" height="138.3"/>
				<rect id="rect2741" x="-403.6" y="462.3" class="st43" width="41.8" height="23.3"/>
				<g id="g2751" transform="matrix(2.0943721,0,0,2.0943721,-611.72857,-279.53534)">
					<g id="g2747">
						<path id="path2743" inkscape:connector-curvature="0" sodipodi:nodetypes="cc" class="st44" d="M127,345.1V378"/>
						<path id="path2745" inkscape:connector-curvature="0" class="st45" d="M116,377.9h11"/>
					</g>
					<rect id="rect2749" x="125.7" y="324.4" class="st46" width="2.7" height="20.7"/>
				</g>
				<path id="rect2753" inkscape:connector-curvature="0" class="st47" d="M-403.7,455.6v6.7h14.4v47.3h12.9v-47.3h14.4v-6.7H-403.7
					z"/>
				<rect id="rect2755" x="-396.7" y="508.7" class="st47" width="27.8" height="6.7"/>
				<path id="rect2759" inkscape:connector-curvature="0" class="st47" d="M-396.7,331v6.7h7.4v9.6h12.9v-9.6h7.4V331h-7.4h-12.9
					H-396.7z"/>
				<path id="path2847" inkscape:connector-curvature="0" sodipodi:nodetypes="ccccccccccc" class="st48" d="M-400,328.5h13v-1.3
					h2.2V325h-2.2v-1.3h-13v1.3v2.2V328.5z"/>
			</g>
			<g id="g3482">
				<path id="rect2706" inkscape:connector-curvature="0" class="st50" d="M-470.5,303.8v4.2v23h4.2v-23h248.8h43.4v32h4.2v-32v-4.2
					h-4.2h-43.4h-248.8H-470.5z"/>
				<rect id="rect1464" x="-502.7" y="337.7" class="st41" width="68.4" height="157.5"/>
				<rect id="rect1646" x="-489.3" y="347.3" class="st51" width="41.8" height="138.3"/>
				<rect id="rect2662" x="-489.3" y="403.2" class="st43" width="41.8" height="82.3"/>
				<g id="g2716" transform="matrix(2.0943721,0,0,2.0943721,-688.52789,-279.53534)">
					<g id="g2684">
						<path id="path2664" inkscape:connector-curvature="0" sodipodi:nodetypes="cc" class="st44" d="M122.8,345.1V378"/>
						<path id="path2666" inkscape:connector-curvature="0" class="st45" d="M111.7,377.9h11.1"/>
					</g>
					<rect id="rect1652" x="121.4" y="324.4" class="st46" width="2.7" height="20.7"/>
				</g>
				<path id="rect1648" inkscape:connector-curvature="0" class="st47" d="M-489.3,396.5v6.7h14.4v106.4h12.9V403.2h14.4v-6.7
					H-489.3z"/>
				<rect id="rect1464-6" x="-482.4" y="508.7" class="st47" width="27.8" height="6.7"/>
				<path id="rect2692" inkscape:connector-curvature="0" class="st47" d="M-482.4,331v6.7h7.4v9.6h12.9v-9.6h7.4V331h-7.4H-475
					H-482.4z"/>
				<path id="path2849" inkscape:connector-curvature="0" sodipodi:nodetypes="ccccccccccc" class="st48" d="M-485.7,328.5h13v-1.3
					h2.2V325h-2.2v-1.3h-13v1.3v2.2V328.5z"/>
			</g>
		</g>
		<text transform="matrix(1 0 0 1 63.0967 391.9259)" class="st31 st52">Pc</text>
		<text transform="matrix(1 0 0 1 143.3283 391.9262)" class="st31 st52">PpA</text>
		<text transform="matrix(1 0 0 1 227.7579 391.9261)" class="st31 st52">PpB</text>
	</g>
	<g>
		<path class="st35" d="M490.8,361.6H338.5c-11.4,0-20.7,9.3-20.7,20.7v137.1c0,11.4,9.3,20.7,20.7,20.7h152.3
			c11.4,0,20.7-9.3,20.7-20.7V382.3C511.6,370.9,502.3,361.6,490.8,361.6z M476,467.9c0,17.6-14.3,31.9-31.9,31.9h-9.6v9.9h-39.6
			v-9.9h-9.6c-17.6,0-31.9-14.3-31.9-31.9v-34.1c0-17.6,14.3-31.9,31.9-31.9h58.8c17.6,0,31.9,14.3,31.9,31.9L476,467.9L476,467.9z"
			/>
		<circle id="path29944-7_1_" class="st14" cx="414.7" cy="381" r="8.4"/>
		<circle id="path29944-8-3_1_" class="st14" cx="442.9" cy="381" r="8.4"/>
		<circle id="path29944-8-1-6_1_" class="st14" cx="385.1" cy="381" r="8.4"/>
		<circle id="path29944-5-1_1_" class="st14" cx="414.7" cy="525.2" r="8.4"/>
		<circle id="path29944-8-0-2_1_" class="st14" cx="443.4" cy="525.2" r="8.4"/>
		<circle id="path29944-8-1-1-9_1_" class="st14" cx="385.6" cy="525.2" r="8.4"/>
		<circle id="path29944-8-0-5-3_1_" class="st14" cx="475.4" cy="511.9" r="8.4"/>
		<circle id="path29944-8-0-5-9-1_1_" class="st14" cx="493.8" cy="485.8" r="8.4"/>
		<circle id="path29944-8-0-5-9-7-94_1_" class="st14" cx="493.8" cy="453.8" r="8.4"/>
		<circle id="path29944-8-0-5-9-7-0-7_1_" class="st14" cx="493.8" cy="421.8" r="8.4"/>
		<circle id="path29944-8-0-5-9-7-0-6-8_1_" class="st14" cx="476" cy="393.6" r="8.4"/>
		<circle id="path29944-8-0-5-9-7-0-6-2-4_1_" class="st14" cx="353.3" cy="393.6" r="8.4"/>
		<circle id="path29944-8-0-5-9-7-0-8-5_1_" class="st14" cx="334.2" cy="421.8" r="8.4"/>
		<circle id="path29944-8-0-5-9-7-9-0_1_" class="st14" cx="334.2" cy="453.8" r="8.4"/>
		<circle id="path29944-8-0-5-9-5-3_1_" class="st14" cx="334.2" cy="485.8" r="8.4"/>
		<circle id="path29944-8-0-5-0-6_1_" class="st14" cx="353.3" cy="511.9" r="8.4"/>
	</g>
</g>
</svg>
